<svg width="26" height="26" viewBox="0 0 26 26" fill="none" xmlns="http://www.w3.org/2000/svg">
<path d="M16.25 6.5H21.125C21.3405 6.5 21.5472 6.5856 21.6995 6.73798C21.8519 6.89035 21.9375 7.09701 21.9375 7.3125C21.9375 7.52799 21.8519 7.73465 21.6995 7.88702C21.5472 8.0394 21.3405 8.125 21.125 8.125H20.2264L19.0044 19.136C18.894 20.1298 18.421 21.0479 17.676 21.7147C16.9309 22.3815 15.9661 22.7501 14.9663 22.75H11.0338C10.0339 22.7501 9.0691 22.3815 8.32405 21.7147C7.57899 21.0479 7.10601 20.1298 6.99562 19.136L5.772 8.125H4.875C4.65951 8.125 4.45285 8.0394 4.30048 7.88702C4.1481 7.73465 4.0625 7.52799 4.0625 7.3125C4.0625 7.09701 4.1481 6.89035 4.30048 6.73798C4.45285 6.5856 4.65951 6.5 4.875 6.5H9.75C9.75 5.63805 10.0924 4.8114 10.7019 4.2019C11.3114 3.59241 12.138 3.25 13 3.25C13.862 3.25 14.6886 3.59241 15.2981 4.2019C15.9076 4.8114 16.25 5.63805 16.25 6.5ZM13 4.875C12.569 4.875 12.1557 5.0462 11.851 5.35095C11.5462 5.6557 11.375 6.06902 11.375 6.5H14.625C14.625 6.06902 14.4538 5.6557 14.149 5.35095C13.8443 5.0462 13.431 4.875 13 4.875ZM10.5625 11.375V17.875C10.5625 18.0905 10.6481 18.2972 10.8005 18.4495C10.9528 18.6019 11.1595 18.6875 11.375 18.6875C11.5905 18.6875 11.7972 18.6019 11.9495 18.4495C12.1019 18.2972 12.1875 18.0905 12.1875 17.875V11.375C12.1875 11.1595 12.1019 10.9528 11.9495 10.8005C11.7972 10.6481 11.5905 10.5625 11.375 10.5625C11.1595 10.5625 10.9528 10.6481 10.8005 10.8005C10.6481 10.9528 10.5625 11.1595 10.5625 11.375ZM14.625 10.5625C14.4095 10.5625 14.2028 10.6481 14.0505 10.8005C13.8981 10.9528 13.8125 11.1595 13.8125 11.375V17.875C13.8125 18.0905 13.8981 18.2972 14.0505 18.4495C14.2028 18.6019 14.4095 18.6875 14.625 18.6875C14.8405 18.6875 15.0472 18.6019 15.1995 18.4495C15.3519 18.2972 15.4375 18.0905 15.4375 17.875V11.375C15.4375 11.1595 15.3519 10.9528 15.1995 10.8005C15.0472 10.6481 14.8405 10.5625 14.625 10.5625Z" fill="#6668E2"/>
</svg>
