<svg width="80" height="80" viewBox="0 0 80 80" fill="none" xmlns="http://www.w3.org/2000/svg">
<path d="M10 38C8.89543 38 8 38.8954 8 40C8 41.1046 8.89543 42 10 42V38ZM71.4142 41.4142C72.1953 40.6332 72.1953 39.3668 71.4142 38.5858L58.6863 25.8579C57.9052 25.0768 56.6389 25.0768 55.8579 25.8579C55.0768 26.6389 55.0768 27.9052 55.8579 28.6863L67.1716 40L55.8579 51.3137C55.0768 52.0948 55.0768 53.3611 55.8579 54.1421C56.6389 54.9232 57.9052 54.9232 58.6863 54.1421L71.4142 41.4142ZM10 42L70 42V38L10 38V42Z" fill="black"/>
</svg>
