<svg width="136" height="64" viewBox="0 0 136 64" fill="none" xmlns="http://www.w3.org/2000/svg">
<g clip-path="url(#clip0_83_547)">
<path d="M132.454 20.2751C131.92 15.0809 129.443 10.1228 125.436 6.48683C121.283 2.73284 115.892 0.655151 110.209 0.655151C100.13 0.655151 91.4359 7.1243 88.7159 16.4739C87.0159 14.8212 84.2231 13.7115 81.6002 13.7115C78.9773 13.7115 76.1845 14.8212 74.4845 16.4739C71.7645 7.1243 63.0702 0.655151 52.9916 0.655151C47.3331 0.655151 41.9173 2.70922 37.7645 6.46322C33.7573 10.1228 31.2802 15.0809 30.7459 20.2751H27.2002V24.5249H30.7459C31.2802 29.7191 33.7573 34.6772 37.7645 38.3131C41.9173 42.0671 47.3088 44.1448 52.9916 44.1448C65.3288 44.1448 75.3588 34.4175 75.3588 22.4236C75.3588 22.4 75.3588 22.4 75.3588 22.4C75.3588 20.0626 78.1516 17.3002 81.6002 17.3002C85.0488 17.3002 87.8416 20.0626 87.8416 22.4C87.8416 22.4 87.8416 22.4 87.8416 22.4236C87.8416 34.4175 97.8716 44.1448 110.209 44.1448C115.867 44.1448 121.283 42.0907 125.436 38.3131C129.443 34.6772 131.92 29.6955 132.454 24.5013H136V20.2515H132.454V20.2751ZM110.209 40.5797C99.8873 40.5797 91.5088 32.4106 91.5088 22.4C91.5088 12.3657 99.9116 4.22027 110.209 4.22027C120.53 4.22027 128.909 12.3893 128.909 22.4C128.909 32.4342 120.53 40.5797 110.209 40.5797ZM52.9916 40.5797C42.6702 40.5797 34.2916 32.4106 34.2916 22.4C34.2916 12.3657 42.6945 4.22027 52.9916 4.22027C63.3131 4.22027 71.6916 12.3893 71.6916 22.4C71.6916 32.4342 63.3131 40.5797 52.9916 40.5797Z" fill="#16175B"/>
</g>
<g clip-path="url(#clip1_83_547)">
<path d="M126.054 25.0751C125.52 19.8809 123.043 14.9228 119.036 11.2869C114.883 7.53288 109.491 5.4552 103.808 5.4552C93.7298 5.4552 85.0355 11.9243 82.3155 21.2739C80.6155 19.6212 77.8227 18.5115 75.1998 18.5115C72.5769 18.5115 69.7841 19.6212 68.0841 21.2739C65.3641 11.9243 56.6698 5.4552 46.5912 5.4552C40.9327 5.4552 35.5169 7.50927 31.3641 11.2633C27.3569 14.9228 24.8798 19.8809 24.3455 25.0751H20.7998V29.3249H24.3455C24.8798 34.5191 27.3569 39.4772 31.3641 43.1132C35.5169 46.8672 40.9084 48.9449 46.5912 48.9449C58.9284 48.9449 68.9584 39.2175 68.9584 27.2236C68.9584 27.2 68.9584 27.2 68.9584 27.2C68.9584 24.8626 71.7512 22.1003 75.1998 22.1003C78.6484 22.1003 81.4412 24.8626 81.4412 27.2C81.4412 27.2 81.4412 27.2 81.4412 27.2236C81.4412 39.2175 91.4712 48.9449 103.808 48.9449C109.467 48.9449 114.883 46.8908 119.036 43.1132C123.043 39.4772 125.52 34.4955 126.054 29.3013H129.6V25.0515H126.054V25.0751ZM103.808 45.3797C93.4869 45.3797 85.1084 37.2107 85.1084 27.2C85.1084 17.1658 93.5112 9.02031 103.808 9.02031C114.13 9.02031 122.508 17.1894 122.508 27.2C122.508 37.2343 114.13 45.3797 103.808 45.3797ZM46.5912 45.3797C36.2698 45.3797 27.8912 37.2107 27.8912 27.2C27.8912 17.1658 36.2941 9.02031 46.5912 9.02031C56.9127 9.02031 65.2912 17.1894 65.2912 27.2C65.2912 37.2343 56.9127 45.3797 46.5912 45.3797Z" fill="#2A2B7D"/>
</g>
<g clip-path="url(#clip2_83_547)">
<path d="M118.854 29.8751C118.32 24.6808 115.843 19.7227 111.836 16.0868C107.683 12.3328 102.292 10.2551 96.6087 10.2551C86.5301 10.2551 77.8358 16.7243 75.1158 26.0738C73.4158 24.4211 70.623 23.3115 68.0001 23.3115C65.3772 23.3115 62.5844 24.4211 60.8844 26.0738C58.1644 16.7243 49.4701 10.2551 39.3915 10.2551C33.733 10.2551 28.3172 12.3092 24.1644 16.0632C20.1572 19.7227 17.6801 24.6808 17.1458 29.8751H13.6001V34.1249H17.1458C17.6801 39.3191 20.1572 44.2772 24.1644 47.9131C28.3172 51.6671 33.7087 53.7448 39.3915 53.7448C51.7287 53.7448 61.7587 44.0175 61.7587 32.0236C61.7587 32 61.7587 32 61.7587 32C61.7587 29.6626 64.5515 26.9002 68.0001 26.9002C71.4487 26.9002 74.2415 29.6626 74.2415 32C74.2415 32 74.2415 32 74.2415 32.0236C74.2415 44.0175 84.2715 53.7448 96.6087 53.7448C102.267 53.7448 107.683 51.6907 111.836 47.9131C115.843 44.2772 118.32 39.2954 118.854 34.1012H122.4V29.8514H118.854V29.8751ZM96.6087 50.1797C86.2872 50.1797 77.9087 42.0106 77.9087 32C77.9087 21.9657 86.3115 13.8202 96.6087 13.8202C106.93 13.8202 115.309 21.9893 115.309 32C115.309 42.0342 106.93 50.1797 96.6087 50.1797ZM39.3915 50.1797C29.0701 50.1797 20.6915 42.0106 20.6915 32C20.6915 21.9657 29.0944 13.8202 39.3915 13.8202C49.713 13.8202 58.0915 21.9893 58.0915 32C58.0915 42.0342 49.713 50.1797 39.3915 50.1797Z" fill="#3E409F"/>
</g>
<g clip-path="url(#clip3_83_547)">
<path d="M112.454 34.6751C111.92 29.4809 109.443 24.5228 105.436 20.8869C101.283 17.1329 95.8916 15.0552 90.2088 15.0552C80.1302 15.0552 71.4359 21.5243 68.7159 30.8739C67.0159 29.2212 64.2231 28.1115 61.6002 28.1115C58.9773 28.1115 56.1845 29.2212 54.4845 30.8739C51.7645 21.5243 43.0702 15.0552 32.9916 15.0552C27.3331 15.0552 21.9173 17.1092 17.7645 20.8632C13.7573 24.5228 11.2802 29.4809 10.7459 34.6751H7.2002V38.9249H10.7459C11.2802 44.1191 13.7573 49.0772 17.7645 52.7132C21.9173 56.4671 27.3088 58.5448 32.9916 58.5448C45.3288 58.5448 55.3588 48.8175 55.3588 36.8236C55.3588 36.8 55.3588 36.8 55.3588 36.8C55.3588 34.4626 58.1516 31.7002 61.6002 31.7002C65.0488 31.7002 67.8416 34.4626 67.8416 36.8C67.8416 36.8 67.8416 36.8 67.8416 36.8236C67.8416 48.8175 77.8716 58.5448 90.2088 58.5448C95.8673 58.5448 101.283 56.4908 105.436 52.7132C109.443 49.0772 111.92 44.0955 112.454 38.9013H116V34.6515H112.454V34.6751ZM90.2088 54.9797C79.8873 54.9797 71.5088 46.8106 71.5088 36.8C71.5088 26.7657 79.9116 18.6203 90.2088 18.6203C100.53 18.6203 108.909 26.7894 108.909 36.8C108.909 46.8343 100.53 54.9797 90.2088 54.9797ZM32.9916 54.9797C22.6702 54.9797 14.2916 46.8106 14.2916 36.8C14.2916 26.7657 22.6945 18.6203 32.9916 18.6203C43.3131 18.6203 51.6916 26.7894 51.6916 36.8C51.6916 46.8343 43.3131 54.9797 32.9916 54.9797Z" fill="#5254C0"/>
</g>
<g clip-path="url(#clip4_83_547)">
<path d="M105.254 39.475C104.72 34.2808 102.243 29.3227 98.2357 25.6868C94.0829 21.9328 88.6914 19.8551 83.0086 19.8551C72.93 19.8551 64.2357 26.3242 61.5157 35.6738C59.8157 34.0211 57.0229 32.9114 54.4 32.9114C51.7771 32.9114 48.9843 34.0211 47.2843 35.6738C44.5643 26.3242 35.87 19.8551 25.7914 19.8551C20.1329 19.8551 14.7171 21.9092 10.5643 25.6632C6.55714 29.3227 4.08 34.2808 3.54571 39.475H0V43.7248H3.54571C4.08 48.919 6.55714 53.8771 10.5643 57.5131C14.7171 61.2671 20.1086 63.3448 25.7914 63.3448C38.1286 63.3448 48.1586 53.6174 48.1586 41.6235C48.1586 41.5999 48.1586 41.5999 48.1586 41.5999C48.1586 39.2625 50.9514 36.5002 54.4 36.5002C57.8486 36.5002 60.6414 39.2625 60.6414 41.5999C60.6414 41.5999 60.6414 41.5999 60.6414 41.6235C60.6414 53.6174 70.6714 63.3448 83.0086 63.3448C88.6671 63.3448 94.0829 61.2907 98.2357 57.5131C102.243 53.8771 104.72 48.8954 105.254 43.7012H108.8V39.4514H105.254V39.475ZM83.0086 59.7796C72.6871 59.7796 64.3086 51.6106 64.3086 41.5999C64.3086 31.5657 72.7114 23.4202 83.0086 23.4202C93.33 23.4202 101.709 31.5893 101.709 41.5999C101.709 51.6342 93.33 59.7796 83.0086 59.7796ZM25.7914 59.7796C15.47 59.7796 7.09143 51.6106 7.09143 41.5999C7.09143 31.5657 15.4943 23.4202 25.7914 23.4202C36.1129 23.4202 44.4914 31.5893 44.4914 41.5999C44.4914 51.6342 36.1129 59.7796 25.7914 59.7796Z" fill="#6668E2"/>
</g>
<defs>
<clipPath id="clip0_83_547">
<rect width="108.8" height="44.8" fill="white" transform="translate(27.2002)"/>
</clipPath>
<clipPath id="clip1_83_547">
<rect width="108.8" height="44.8" fill="white" transform="translate(20.7998 4.80005)"/>
</clipPath>
<clipPath id="clip2_83_547">
<rect width="108.8" height="44.8" fill="white" transform="translate(13.6001 9.59998)"/>
</clipPath>
<clipPath id="clip3_83_547">
<rect width="108.8" height="44.8" fill="white" transform="translate(7.2002 14.4)"/>
</clipPath>
<clipPath id="clip4_83_547">
<rect width="108.8" height="44.8" fill="white" transform="translate(0 19.2)"/>
</clipPath>
</defs>
</svg>
