<svg width="840" height="840" viewBox="0 0 840 840" fill="none" xmlns="http://www.w3.org/2000/svg">
<path d="M763.547 405.234C759.938 369.141 743.203 334.688 716.133 309.422C688.078 283.336 651.656 268.898 613.266 268.898C545.18 268.898 486.445 313.852 468.07 378.82C456.586 367.336 437.719 359.625 420 359.625C402.281 359.625 383.414 367.336 371.93 378.82C353.555 313.852 294.82 268.898 226.734 268.898C188.508 268.898 151.922 283.172 123.867 309.258C96.7969 334.688 80.0625 369.141 76.4531 405.234H52.5V434.766H76.4531C80.0625 470.859 96.7969 505.312 123.867 530.578C151.922 556.664 188.344 571.102 226.734 571.102C310.078 571.102 377.836 503.508 377.836 420.164C377.836 420 377.836 420 377.836 420C377.836 403.758 396.703 384.562 420 384.562C443.297 384.562 462.164 403.758 462.164 420C462.164 420 462.164 420 462.164 420.164C462.164 503.508 529.922 571.102 613.266 571.102C651.492 571.102 688.078 556.828 716.133 530.578C743.203 505.312 759.938 470.695 763.547 434.602H787.5V405.07H763.547V405.234ZM613.266 546.328C543.539 546.328 486.937 489.562 486.937 420C486.937 350.273 543.703 293.672 613.266 293.672C682.992 293.672 739.594 350.438 739.594 420C739.594 489.727 682.992 546.328 613.266 546.328ZM226.734 546.328C157.008 546.328 100.406 489.562 100.406 420C100.406 350.273 157.172 293.672 226.734 293.672C296.461 293.672 353.062 350.438 353.062 420C353.062 489.727 296.461 546.328 226.734 546.328Z" fill="white"/>
</svg>
