<svg width="80" height="80" viewBox="0 0 80 80" fill="none" xmlns="http://www.w3.org/2000/svg">
<path d="M22.0659 54.0659C24.967 52.7472 28.1318 51.8681 31.4725 51.2527C30.8571 48.4395 30.5055 45.5385 30.4176 42.5494H16.0879C16.3516 47.1209 17.8461 51.2527 20.3077 54.7692L22.0659 54.0659Z" fill="#6668E2"/>
<path d="M23.2088 56.8791L22.1538 57.3187C26.0219 61.7143 31.4725 64.6154 37.5384 65.3187L37.2747 64.967C35.0769 61.978 33.3186 58.2857 32.1758 54.2418C28.923 54.7692 25.934 55.6483 23.2088 56.8791Z" fill="#6668E2"/>
<path d="M32.0879 28.1319C33.1428 24.3516 34.7253 20.8352 36.7472 17.9341L37.5384 16.8791C31.3846 17.5824 26.022 20.5714 22.0659 24.967L23.033 25.4066C25.8461 26.6374 28.9231 27.6044 32.0879 28.1319Z" fill="#6668E2"/>
<path d="M31.3846 31.033C27.956 30.4176 24.7912 29.4505 21.8022 28.1319L20.2198 27.4286C17.8461 30.945 16.3516 35.1648 16.0879 39.6483H30.4176C30.5055 36.6593 30.7692 33.7582 31.3846 31.033Z" fill="#6668E2"/>
<path d="M58.2856 57.5824L57.6702 57.1429C54.6812 55.7363 51.3406 54.7692 47.8241 54.1538C46.6812 58.1978 44.923 61.8901 42.7252 64.8791L42.3735 65.4066C48.7032 64.8791 54.2417 61.978 58.2856 57.5824Z" fill="#6668E2"/>
<path d="M57.7581 25.1429L58.4614 24.7912C54.4175 20.3077 48.7911 17.4066 42.4614 16.8791L43.2526 18.022C45.2746 20.9231 46.7691 24.4396 47.912 28.2198C51.4285 27.6044 54.7691 26.5494 57.7581 25.1429Z" fill="#6668E2"/>
<path d="M33.3188 39.5604H46.5936C46.5057 36.7473 46.154 34.022 45.6265 31.4725C43.7804 31.6484 41.9342 31.8242 40.0881 31.8242C38.154 31.8242 36.2199 31.7363 34.3738 31.4725C33.7584 34.022 33.4068 36.8352 33.3188 39.5604Z" fill="#6668E2"/>
<path d="M60.3075 27.0769L59.0768 27.7802C55.9119 29.2747 52.3075 30.4176 48.6152 31.0329C49.2306 33.7582 49.4944 36.6593 49.5823 39.5604H64.7032C64.4394 34.989 62.857 30.6813 60.3075 27.0769Z" fill="#6668E2"/>
<path d="M59.1647 54.5934L60.2196 55.2967C62.857 51.6923 64.4394 47.2967 64.7032 42.6374H49.5823C49.4944 45.6264 49.1427 48.5275 48.5273 51.3407C52.3076 51.956 55.824 53.0989 58.9889 54.5934H59.1647Z" fill="#6668E2"/>
<path d="M40.0002 18.5494L39.1211 19.6923C37.3629 22.1538 36.0442 25.2308 35.0771 28.5714C36.7475 28.7472 38.4178 28.8352 40.0881 28.8352C41.7585 28.8352 43.3409 28.7472 44.9233 28.5714C43.9563 25.2308 42.5497 22.1538 40.7914 19.6044L40.0002 18.5494Z" fill="#6668E2"/>
<path d="M40.0002 63.6483L40.3519 63.2088C42.2859 60.5714 43.7804 57.3187 44.8354 53.8022C43.253 53.6264 41.6705 53.5385 40.0881 53.5385C38.4178 53.5385 36.7475 53.6264 35.165 53.8022C36.22 57.3187 37.7145 60.5714 39.6486 63.1209L40.0002 63.6483Z" fill="#6668E2"/>
<path d="M40.0881 50.5494C41.9342 50.5494 43.7804 50.6374 45.6265 50.9011C46.2419 48.2637 46.5057 45.4505 46.5936 42.6374H33.3188C33.4068 45.5385 33.7584 48.2637 34.2859 50.9011C36.2199 50.6374 38.154 50.5494 40.0881 50.5494Z" fill="#6668E2"/>
</svg>
