<svg width="64" height="64" viewBox="0 0 64 64" fill="none" xmlns="http://www.w3.org/2000/svg">
<path d="M40.6665 17.3334C42.2578 17.3334 43.7839 16.7012 44.9091 15.576C46.0344 14.4508 46.6665 12.9247 46.6665 11.3334C46.6665 9.74208 46.0344 8.21595 44.9091 7.09073C43.7839 5.96552 42.2578 5.33337 40.6665 5.33337C39.0752 5.33337 37.5491 5.96552 36.4239 7.09073C35.2986 8.21595 34.6665 9.74208 34.6665 11.3334C34.6665 12.9247 35.2986 14.4508 36.4239 15.576C37.5491 16.7012 39.0752 17.3334 40.6665 17.3334Z" fill="#6668E2"/>
<path d="M28.6134 23.0427C26.9507 23.456 25.816 24.0773 24.9 24.848C23.5267 26.0053 22.4174 27.6747 20.9187 30.2987C20.5677 30.9127 19.9872 31.3622 19.3048 31.5483C18.6224 31.7343 17.8941 31.6417 17.28 31.2907C16.666 30.9397 16.2165 30.3592 16.0304 29.6768C15.8444 28.9944 15.9371 28.2661 16.288 27.652C17.78 25.0427 19.288 22.6013 21.4654 20.7693C23.7374 18.8547 26.5187 17.772 30.2694 17.3547C31.8374 17.1813 33.5627 17.216 35.18 17.9373C36.8774 18.696 38.1174 20.0547 38.9627 21.8707C40.1014 24.3147 40.948 25.7693 41.6254 26.612C41.952 27.0173 42.18 27.2053 42.3094 27.2893C42.412 27.356 42.456 27.3613 42.472 27.364H42.4734C42.5894 27.3773 42.9654 27.364 44.0694 26.8747C44.5507 26.6613 45.076 26.4053 45.7187 26.092L45.872 26.0173C46.658 25.6295 47.451 25.2561 48.2507 24.8973C48.8963 24.6139 49.6279 24.5977 50.2854 24.8523C50.9429 25.1068 51.4729 25.6115 51.7593 26.2557C52.0458 26.9 52.0654 27.6315 51.8139 28.2902C51.5624 28.9489 51.0603 29.4812 50.4174 29.7707C49.6763 30.1033 48.9416 30.4496 48.2134 30.8093L48.0387 30.8947C47.424 31.1947 46.8054 31.4973 46.2254 31.7533C45.0254 32.284 43.492 32.86 41.8294 32.6587C40.0747 32.4453 38.7227 31.4547 37.6094 30.1253L33.9654 37.156L39.0054 43.7133C39.3054 44.1053 39.4907 44.572 39.5427 45.0627L40.652 55.724C40.6943 56.0753 40.6662 56.4314 40.5695 56.7717C40.4728 57.1121 40.3093 57.4297 40.0885 57.7062C39.8678 57.9827 39.5943 58.2125 39.2839 58.3823C38.9735 58.552 38.6324 58.6583 38.2805 58.6949C37.9286 58.7315 37.5729 58.6978 37.2342 58.5956C36.8955 58.4934 36.5805 58.3248 36.3076 58.0997C36.0347 57.8746 35.8093 57.5974 35.6445 57.2843C35.4798 56.9712 35.379 56.6284 35.348 56.276L34.316 46.3653L31.2547 42.3813L31.228 42.4307L31.116 42.2013L25.46 34.8413C25.182 34.4796 25.0014 34.0526 24.9356 33.6011C24.8698 33.1496 24.9209 32.6888 25.084 32.2627L28.6134 23.0427Z" fill="#6668E2"/>
<path d="M24.576 38.676L22.6134 43.956L14.88 43.3427C14.5284 43.31 14.1739 43.3475 13.8369 43.453C13.4999 43.5585 13.1872 43.7299 12.917 43.9572C12.6467 44.1845 12.4243 44.4631 12.2627 44.7771C12.101 45.091 12.0033 45.4339 11.9752 45.7859C11.9472 46.1379 11.9893 46.492 12.0991 46.8276C12.209 47.1631 12.3844 47.4736 12.6152 47.7408C12.846 48.0081 13.1275 48.2268 13.4435 48.3844C13.7596 48.542 14.1037 48.6352 14.456 48.6587L24.2 49.432C24.7783 49.478 25.3558 49.3342 25.845 49.0224C26.3342 48.7105 26.7083 48.2477 26.9107 47.704L28.4107 43.6667L24.576 38.676Z" fill="#6668E2"/>
</svg>
