<svg width="107" height="56" viewBox="0 0 107 56" fill="none" xmlns="http://www.w3.org/2000/svg">
<g clip-path="url(#clip0_76_443)">
<path d="M0 56.0003H55.9416V48.938H52.4136V52.4693H3.52732V3.53163H52.4136V32.2585H55.9416V0.000610352H0V56.0003Z" fill="#6668E2"/>
<path d="M12.292 47.205H15.8206V33.989H12.292V47.205Z" fill="#6668E2"/>
<path d="M24.8387 40.1071L21.275 33.989H17.5688V47.205H20.9182V40.3383L20.9719 40.3396L25.0163 47.205H28.2584V33.989H24.8918V40.1071H24.8387Z" fill="#6668E2"/>
<path d="M37.0393 40.6056C37.0393 43.9416 36.0948 44.1543 34.7766 44.1543H33.5465V37.1999H34.6332C36.1306 37.1999 37.0393 37.2885 37.0393 40.6056ZM30.0195 33.989V47.205H34.4556C38.6425 47.205 40.6197 46.1527 40.6197 40.5884C40.6197 35.1308 38.607 33.989 34.4022 33.989H30.0195Z" fill="#6668E2"/>
<path d="M41.8838 47.205H45.4111V33.989H41.8838V47.205Z" fill="#6668E2"/>
<path d="M74.5576 44.2442C72.6159 44.2442 72.3486 42.9061 72.3486 40.7311C72.3486 38.5728 72.6159 37.2349 74.5576 37.2349C76.4824 37.2349 76.7495 38.5728 76.7495 40.7311C76.7495 42.9061 76.4824 44.2442 74.5576 44.2442ZM74.5576 33.8286C69.6409 33.8286 68.7676 37.0562 68.7676 40.6058C68.7676 44.1374 69.6409 47.3656 74.5576 47.3656C79.4578 47.3656 80.3304 44.1374 80.3304 40.6058C80.3304 37.0562 79.475 33.8286 74.5576 33.8286Z" fill="#6668E2"/>
<path d="M99.2856 44.2442C97.3442 44.2442 97.0759 42.9061 97.0759 40.7311C97.0759 38.5728 97.3442 37.2349 99.2856 37.2349C101.209 37.2349 101.477 38.5728 101.477 40.7311C101.477 42.9061 101.209 44.2442 99.2856 44.2442ZM99.2856 33.8286C94.3679 33.8286 93.4946 37.0562 93.4946 40.6058C93.4946 44.1374 94.3679 47.3656 99.2856 47.3656C104.185 47.3656 105.057 44.1374 105.057 40.6058C105.057 37.0562 104.203 33.8286 99.2856 33.8286Z" fill="#6668E2"/>
<path d="M106.196 46.9773C105.669 46.9773 105.548 46.6048 105.548 46.1194C105.548 45.631 105.669 45.2591 106.196 45.2591C106.723 45.2591 106.847 45.631 106.847 46.1194C106.847 46.6048 106.723 46.9773 106.196 46.9773ZM106.196 45.1143C105.553 45.1143 105.395 45.5493 105.395 46.1194C105.395 46.6864 105.553 47.119 106.196 47.119C106.836 47.119 107 46.6864 107 46.1194C107 45.5493 106.836 45.1143 106.196 45.1143Z" fill="#6668E2"/>
<path d="M106.241 46.0906H106.04V45.729H106.241C106.359 45.729 106.399 45.7789 106.399 45.9106C106.399 46.0403 106.359 46.0906 106.241 46.0906ZM106.638 45.8923C106.638 45.6524 106.56 45.5148 106.251 45.5148H105.795V46.7103H106.04V46.2881H106.196L106.38 46.7103H106.631L106.43 46.2643C106.591 46.2118 106.638 46.0799 106.638 45.8923Z" fill="#6668E2"/>
<path d="M62.003 42.105H64.2789V42.3359C64.2789 43.7963 64.3244 44.4405 62.587 44.4405C60.9653 44.4405 60.4127 43.6914 60.4127 40.7132C60.4127 37.6097 61.3387 37.2349 62.7288 37.2349C63.7615 37.2349 64.4926 37.5022 65.0985 37.8421L66.9872 34.8985C65.9888 34.2561 64.5281 33.8286 62.8891 33.8286C58.3285 33.8286 56.8672 36.0227 56.8672 40.6058C56.8672 44.601 57.936 47.3656 62.2653 47.3656C63.0322 47.3656 63.6912 47.3132 64.2591 47.2051H67.5037V39.233H62.3924L62.003 42.105Z" fill="#6668E2"/>
<path d="M86.7305 42.105H89.0061V42.3359C89.0061 43.7963 89.0519 44.4405 87.3145 44.4405C85.6925 44.4405 85.1399 43.6914 85.1399 40.7132C85.1399 37.6097 86.0659 37.2349 87.4566 37.2349C88.4887 37.2349 89.2208 37.5022 89.8264 37.8421L91.7148 34.8985C90.7163 34.2561 89.2553 33.8286 87.6164 33.8286C83.056 33.8286 81.5947 36.0227 81.5947 40.6058C81.5947 44.601 82.6632 47.3656 86.9932 47.3656C87.7601 47.3656 88.419 47.3132 88.987 47.2051H92.2313V39.233H87.1199L86.7305 42.105Z" fill="#6668E2"/>
<path d="M55.9381 37.2172V33.989H47.1724V47.205H55.9381V44.0666H50.6291V42.0858H54.1162L54.5417 38.9477H50.6291V37.2172H55.9381Z" fill="#6668E2"/>
</g>
<defs>
<clipPath id="clip0_76_443">
<rect width="107" height="56" fill="white"/>
</clipPath>
</defs>
</svg>
