<svg width="43" height="56" viewBox="0 0 43 56" fill="none" xmlns="http://www.w3.org/2000/svg">
<path d="M7.44231 0.835778C3.33167 0.835778 0 4.2033 0 8.35817V48.4776C0 52.6324 3.33167 56 7.44231 56C11.5529 56 14.8846 52.6324 14.8846 48.4776V36.9785L29.1297 53.4337C30.6008 55.1313 32.6642 56 34.7356 56C36.4746 56 38.2201 55.3877 39.6342 54.139C42.7277 51.4033 43.0384 46.6531 40.3319 43.5263L26.9396 28.0555L38.2048 12.8736C40.6707 9.55117 40.0068 4.83169 36.7173 2.33928C33.4303 -0.153142 28.7611 0.517879 26.2952 3.84277L14.8846 19.2255V8.35817C14.8846 4.2033 11.5529 0.835778 7.44231 0.835778Z" fill="#6668E2"/>
</svg>
