<svg width="64" height="64" viewBox="0 0 64 64" fill="none" xmlns="http://www.w3.org/2000/svg">
<path d="M47.2534 56.8889H15.2534C14.7819 56.8889 14.3297 57.0762 13.9963 57.4096C13.6629 57.743 13.4756 58.1952 13.4756 58.6667C13.4756 59.1382 13.6629 59.5904 13.9963 59.9238C14.3297 60.2572 14.7819 60.4445 15.2534 60.4445H47.2534C47.7249 60.4445 48.177 60.2572 48.5104 59.9238C48.8438 59.5904 49.0311 59.1382 49.0311 58.6667C49.0311 58.1952 48.8438 57.743 48.5104 57.4096C48.177 57.0762 47.7249 56.8889 47.2534 56.8889Z" fill="#2A2B7D"/>
<path d="M31.5554 3.55567C24.9545 3.55567 18.6239 6.17788 13.9563 10.8455C9.28872 15.513 6.6665 21.8436 6.6665 28.4446C6.6665 29.2446 6.6665 30.0268 6.79095 30.809C7.24906 35.6095 9.09187 40.1735 12.0953 43.9462C15.0988 47.7189 19.1336 50.5379 23.7092 52.0604C28.2848 53.5829 33.2042 53.7434 37.8693 52.5224C42.5344 51.3013 46.7444 48.7514 49.9874 45.1824C53.2304 41.6135 55.3668 37.1793 56.1368 32.419C56.9068 27.6586 56.2774 22.777 54.325 18.3676C52.3726 13.9583 49.1813 10.2111 45.139 7.58155C41.0968 4.952 36.3777 3.55337 31.5554 3.55567ZM31.5554 7.11122C37.1766 7.11611 42.5688 9.33941 46.5599 13.2979V15.0757C39.5333 12.6576 31.8952 12.6889 24.8887 15.1646C24.329 14.6191 23.6264 14.2432 22.8621 14.0801H22.4176C22.2043 13.3334 22.0087 12.5868 21.8487 11.8223C21.6887 11.0579 21.5998 10.3823 21.511 9.65345C24.5972 7.98796 28.0485 7.11445 31.5554 7.11122ZM26.2221 17.5468C32.6784 15.3848 39.6756 15.4662 46.0798 17.7779C45.2136 22.2945 43.3221 26.552 40.551 30.2223C39.7759 29.8941 38.9178 29.8153 38.0959 29.9969C37.274 30.1785 36.529 30.6114 35.9643 31.2357C35.3421 30.8801 34.7198 30.5246 34.1865 30.1157C30.5977 27.7212 27.6006 24.5417 25.4221 20.8179C25.7742 20.3813 26.0305 19.8755 26.1745 19.3334C26.3184 18.7913 26.3468 18.225 26.2576 17.6712L26.2221 17.5468ZM19.111 11.1468C19.111 11.5201 19.2176 11.9112 19.2887 12.2846C19.4487 13.0668 19.6621 13.8312 19.8754 14.5957C19.1946 14.9988 18.6467 15.5923 18.2992 16.3031C17.9517 17.0139 17.8198 17.8108 17.9198 18.5957C15.1136 20.4282 12.6071 22.6829 10.4887 25.2801C10.9138 22.4672 11.8971 19.7678 13.3809 17.3406C14.8647 14.9134 16.819 12.8075 19.1287 11.1468H19.111ZM19.111 39.0757C18.417 39.3086 17.7967 39.7206 17.3129 40.27C16.8291 40.8194 16.4988 41.4867 16.3554 42.2046H15.2176C12.3466 38.7803 10.6295 34.5373 10.3109 30.0801L10.5065 29.7423C12.7327 26.2905 15.643 23.3318 19.0576 21.049C19.5696 21.5837 20.2165 21.97 20.9301 22.1672C21.6436 22.3643 22.3971 22.365 23.111 22.169C25.4888 26.1874 28.7393 29.6201 32.6221 32.2134C33.351 32.6934 34.0976 33.1379 34.8443 33.5646C34.7846 34.2445 34.8945 34.9287 35.1643 35.5557C31.9109 38.1392 28.1582 40.0216 24.1421 41.0846C23.6763 40.2144 22.9164 39.5382 21.998 39.1767C21.0796 38.8152 20.0626 38.792 19.1287 39.1112L19.111 39.0757ZM31.5554 49.7423C27.9398 49.7433 24.3841 48.8192 21.2265 47.0579L21.7243 46.9512C22.4317 46.7191 23.0639 46.3014 23.5548 45.7416C24.0458 45.1819 24.3775 44.5007 24.5154 43.769C29.0612 42.6098 33.305 40.4878 36.9598 37.5468C37.828 38.0541 38.8532 38.2223 39.838 38.0188C40.8227 37.8152 41.6973 37.2545 42.2932 36.4446C44.8014 37.0966 47.3816 37.4311 49.9732 37.4401H50.9154C49.2003 41.1283 46.4666 44.2492 43.0365 46.4352C39.6064 48.6211 35.6228 49.7809 31.5554 49.7779V49.7423ZM43.1287 33.9201C43.127 33.175 42.9243 32.4441 42.5421 31.8046C45.5007 27.9399 47.5596 23.4637 48.5687 18.7023C49.4576 19.1172 50.3347 19.5794 51.1999 20.089C53.1551 24.7093 53.4195 29.8709 51.9465 34.6668C48.995 34.895 46.0259 34.6611 43.1465 33.9734L43.1287 33.9201Z" fill="#2A2B7D"/>
</svg>
