<svg width="64" height="64" viewBox="0 0 64 64" fill="none" xmlns="http://www.w3.org/2000/svg">
<path d="M39.088 16.6944C39.088 14.8039 38.337 12.9909 37.0003 11.6541C35.6635 10.3174 33.8505 9.56641 31.96 9.56641C30.0696 9.56641 28.2565 10.3174 26.9198 11.6541C25.583 12.9909 24.832 14.8039 24.832 16.6944C24.832 18.5849 25.583 20.3979 26.9198 21.7347C28.2565 23.0714 30.0696 23.8224 31.96 23.8224C33.8505 23.8224 35.6635 23.0714 37.0003 21.7347C38.337 20.3979 39.088 18.5849 39.088 16.6944Z" fill="#6668E2"/>
<path d="M8.05117 38.4H17.616V28.8448L17.6416 28.2688C17.7248 27.3184 18.0192 26.4288 18.4736 25.6448H9.65117L9.27677 25.6672C8.49837 25.7589 7.78069 26.1331 7.25986 26.7188C6.73903 27.3045 6.45128 28.061 6.45117 28.8448V36.8C6.45117 37.2243 6.61974 37.6313 6.9198 37.9313C7.21986 38.2314 7.62683 38.4 8.05117 38.4Z" fill="#5254C0"/>
<path d="M57.5678 36.8C57.5678 37.2243 57.3992 37.6313 57.0992 37.9313C56.7991 38.2314 56.3921 38.4 55.9678 38.4H46.3166V28.8448L46.2974 28.368C46.2275 27.4085 45.9409 26.4774 45.459 25.6448H54.3678C55.1521 25.645 55.909 25.9332 56.4947 26.4547C57.0805 26.9761 57.4544 27.6946 57.5454 28.4736L57.5678 28.8448V36.8Z" fill="#5254C0"/>
<path d="M43.0943 28.4736C43.0033 27.694 42.6289 26.9752 42.0425 26.4536C41.456 25.932 40.6983 25.6442 39.9135 25.6448H24.0159L23.6415 25.6672C22.8631 25.7589 22.1454 26.1331 21.6246 26.7188C21.1038 27.3045 20.816 28.061 20.8159 28.8448V38.4H43.1135V28.8448L43.0943 28.4736Z" fill="#6668E2"/>
<path d="M47.9201 11.5745C49.5441 11.5745 51.1015 12.2196 52.2498 13.3679C53.3982 14.5162 54.0433 16.0737 54.0433 17.6977C54.0433 19.3216 53.3982 20.8791 52.2498 22.0274C51.1015 23.1757 49.5441 23.8209 47.9201 23.8209C46.2961 23.8209 44.7386 23.1757 43.5903 22.0274C42.442 20.8791 41.7969 19.3216 41.7969 17.6977C41.7969 16.0737 42.442 14.5162 43.5903 13.3679C44.7386 12.2196 46.2961 11.5745 47.9201 11.5745Z" fill="#5254C0"/>
<path d="M22.1761 17.696C22.1761 16.072 21.531 14.5145 20.3826 13.3662C19.2343 12.2179 17.6769 11.5728 16.0529 11.5728C14.4289 11.5728 12.8715 12.2179 11.7231 13.3662C10.5748 14.5145 9.92969 16.072 9.92969 17.696C9.92969 19.3195 10.5746 20.8766 11.7227 22.0246C12.8707 23.1726 14.4277 23.8176 16.0513 23.8176C17.6748 23.8176 19.2319 23.1726 20.3799 22.0246C21.5279 20.8766 22.1729 19.3195 22.1729 17.696H22.1761Z" fill="#5254C0"/>
<path d="M7.9999 41.6C7.57556 41.6 7.16859 41.7685 6.86853 42.0686C6.56847 42.3687 6.3999 42.7756 6.3999 43.2V46.4C6.3999 48.5217 7.24276 50.5565 8.74305 52.0568C10.2433 53.5571 12.2782 54.4 14.3999 54.4H49.5999C51.7216 54.4 53.7565 53.5571 55.2568 52.0568C56.757 50.5565 57.5999 48.5217 57.5999 46.4V43.2C57.5999 42.7756 57.4313 42.3687 57.1313 42.0686C56.8312 41.7685 56.4242 41.6 55.9999 41.6H7.9999Z" fill="#3E409F"/>
</svg>
