<svg width="512" height="189" viewBox="0 0 512 189" fill="none" xmlns="http://www.w3.org/2000/svg">
<path d="M116.4 0.0930634C108.36 0.613068 101.64 1.21307 98 1.69307C62.08 6.61307 36.72 19.8931 23.68 40.6931C19.8 46.8531 16.24 55.7731 14.04 64.8531L12.96 69.2531L7.44 69.4531C2 69.6531 1.92 69.6531 0.96 70.7731C0.04 71.8531 0 72.0531 0 79.0531V86.2531L1.16 87.5331C2.32 88.8131 2.4 88.8531 6.32 88.9731L10.28 89.1331L10.56 95.9731C11.44 119.293 18.44 138.973 31.44 154.653C35.12 159.093 43.68 167.293 48 170.533C57.44 177.613 66.24 182.093 76.6 185.093C117.52 197.013 160.12 177.853 200.8 129.253C226.28 98.8131 237.48 70.4531 232.92 47.7731C232.72 46.7331 232.84 46.5731 234.84 45.6931C239.76 43.5331 245.36 42.5331 252.4 42.5331C260.28 42.5731 268.12 44.4531 272.8 47.4531C275.72 49.3331 275.64 49.1731 275.16 54.0531C274 65.4531 277.52 80.1331 284.88 94.8531C297.4 119.773 324.2 150.413 348.8 167.853C372.24 184.453 396.96 191.253 420.8 187.653C439.8 184.813 456.44 176.173 471 161.653C478.8 153.893 483.88 146.853 488.4 137.653C494.64 124.893 497.76 112.013 498.28 96.5731L498.52 89.0931L504.08 88.9731L509.68 88.8531L510.84 87.5331L512 86.2531V79.0131V71.7731L510.84 70.6131L509.68 69.4531H502.84H496.04L495.64 67.9331C495.44 67.1331 494.96 65.2931 494.64 63.8531C493.64 59.3331 490.88 51.4531 488.8 47.1731C480.48 29.6931 466.16 17.6131 443.96 9.33307C432.56 5.05307 419.4 2.37308 401 0.613068C394.2 -0.066925 369.84 -0.066925 363 0.573074C349.92 1.85307 340.56 3.17307 332.52 4.89307L328 5.85307H254.48C182.24 5.85307 180.88 5.85307 177.16 5.05307C168.8 3.25307 157.52 1.65308 146.4 0.653076C141.68 0.213074 120.36 -0.186935 116.4 0.0930634ZM299.2 16.1731C289.52 22.8131 283.04 29.9331 279.4 37.8531C278.76 39.2931 278.2 40.5331 278.12 40.6131C278.08 40.6931 276.64 40.0531 274.92 39.1731C269.32 36.2931 264.04 34.8931 256.6 34.2931C247.96 33.6131 238.28 35.0531 231.52 38.0131L230.08 38.6531L228.44 35.6931C224.8 29.0531 218.76 22.4531 212.44 18.2131C210.68 17.0131 209.24 15.9331 209.2 15.7331C209.2 15.5731 229.68 15.4531 254.72 15.4931C297.64 15.4931 300.16 15.5331 299.2 16.1731Z" fill="#6668E2"/>
</svg>
